static_grf.mot
version=1
nRows=15
nColumns 19
inDegrees=yes
endheader
time	1_ground_force_vx	1_ground_force_vy	1_ground_force_vz	1_ground_force_px	1_ground_force_py	1_ground_force_pz	1_ground_torque_x	1_ground_torque_y	1_ground_torque_z	2_ground_force_vx	2_ground_force_vy	2_ground_force_vz	2_ground_force_px	2_ground_force_py	2_ground_force_pz	2_ground_torque_x	2_ground_torque_y	2_ground_torque_z
            1.355000	            5.308014	          257.154070	          -20.876163	           -0.281420	            0.006218	           -0.406228	            0.019774	            0.957970	           -0.077770	           -6.678236	          217.378348	           23.069346	           -0.232624	            0.005592	           -0.683046	            0.037397	           -1.217269	           -0.129183
            1.355500	            5.354004	          256.973647	          -20.831194	           -0.281527	            0.006218	           -0.406327	            0.019540	            0.937841	           -0.076025	           -6.723236	          216.826929	           22.738898	           -0.232227	            0.005593	           -0.683102	            0.035797	           -1.154468	           -0.121070
            1.356000	            5.353270	          257.875928	          -21.056609	           -0.281861	            0.006216	           -0.405834	            0.019796	            0.953609	           -0.077866	           -6.534445	          216.458791	           22.878289	           -0.232723	            0.005590	           -0.682758	            0.036258	           -1.201089	           -0.126947
            1.356500	            5.306858	          257.876902	          -21.285775	           -0.281499	            0.006217	           -0.405873	            0.019738	            0.959148	           -0.079170	           -6.677756	          217.195714	           22.646336	           -0.232386	            0.005593	           -0.683095	            0.036688	           -1.193294	           -0.124421
            1.357000	            5.353417	          257.695496	          -21.011526	           -0.281678	            0.006216	           -0.405787	            0.019675	            0.947095	           -0.077223	           -7.055734	          218.113923	           22.978278	           -0.232642	            0.005595	           -0.683894	            0.038347	           -1.185419	           -0.124884
            1.357500	            5.444875	          257.695907	          -21.103465	           -0.281780	            0.006219	           -0.406449	            0.021889	            1.035978	           -0.084839	           -6.538309	          217.562692	           23.163800	           -0.232186	            0.005596	           -0.683867	            0.036782	           -1.223937	           -0.130312
            1.358000	            5.490996	          256.794360	          -21.061588	           -0.281948	            0.006220	           -0.406681	            0.021767	            1.017985	           -0.083492	           -6.727121	          217.930967	           22.977481	           -0.232472	            0.005593	           -0.683346	            0.036431	           -1.180230	           -0.124437
            1.358500	            5.307493	          257.515388	          -21.058041	           -0.282155	            0.006216	           -0.405826	            0.019645	            0.953171	           -0.077945	           -6.586612	          217.931809	           22.883565	           -0.232476	            0.005596	           -0.684039	            0.035576	           -1.177095	           -0.123599
            1.359000	            5.215825	          256.794504	          -21.106761	           -0.281933	            0.006219	           -0.406477	            0.019845	            0.977049	           -0.080307	           -6.629515	          216.827100	           22.785787	           -0.232782	            0.005592	           -0.683264	            0.038731	           -1.266750	           -0.133119
            1.359500	            5.261910	          257.334750	          -20.966988	           -0.282431	            0.006218	           -0.406212	            0.018668	            0.912942	           -0.074384	           -6.585262	          217.563360	           22.929179	           -0.232454	            0.005593	           -0.683262	            0.036908	           -1.219362	           -0.128510
            1.360000	            5.169769	          257.335519	          -21.150184	           -0.281714	            0.006219	           -0.406464	            0.018320	            0.911909	           -0.074949	           -6.584659	          217.379691	           22.787738	           -0.232457	            0.005594	           -0.683480	            0.036975	           -1.220660	           -0.127961
            1.360500	            5.307103	          257.155643	          -21.243011	           -0.281479	            0.006219	           -0.406359	            0.020366	            0.986846	           -0.081521	           -6.489589	          217.011413	           22.880240	           -0.232787	            0.005592	           -0.683224	            0.037381	           -1.250030	           -0.131795
            1.361000	            5.399535	          258.055446	          -20.872526	           -0.281383	            0.006217	           -0.405989	            0.020097	            0.960475	           -0.077687	           -6.492892	          217.931980	           22.930453	           -0.232537	            0.005595	           -0.683863	            0.036623	           -1.229257	           -0.129340
            1.361500	            5.123713	          257.876473	          -21.193608	           -0.281761	            0.006216	           -0.405790	            0.018343	            0.923220	           -0.075875	           -6.496194	          218.852546	           22.980667	           -0.232364	            0.005598	           -0.684665	            0.036511	           -1.230025	           -0.129159
            1.362000	            5.215058	          257.877081	          -21.331403	           -0.281671	            0.006216	           -0.405666	            0.018657	            0.922544	           -0.076312	           -6.724544	          217.195043	           22.787141	           -0.232304	            0.005594	           -0.683268	            0.036411	           -1.176035	           -0.123384
